<?xml version="1.0" encoding="UTF-8"?>
<!DOCTYPE svg PUBLIC "-//W3C//DTD SVG 1.1//EN" "http://www.w3.org/Graphics/SVG/1.1/DTD/svg11.dtd">
<!-- Creator: CorelDRAW X5 -->
<svg xmlns="http://www.w3.org/2000/svg" xml:space="preserve" width="124.86mm" height="108.48mm" style="shape-rendering:geometricPrecision; text-rendering:geometricPrecision; image-rendering:optimizeQuality; fill-rule:evenodd; clip-rule:evenodd"
viewBox="0 0 12485960 10847963"
 xmlns:xlink="http://www.w3.org/1999/xlink">
 <defs>
  <style type="text/css">
   <![CDATA[
    .str0 {stroke:black;stroke-width:35279.9}
    .fil0 {fill:none}
   ]]>
  </style>
 </defs>
 <g id="Layer_x0020_1">
  <metadata id="CorelCorpID_0Corel-Layer"/>
  <path class="fil0 str0" d="M3130345 32680l0 0c-53850,31080 -72460,100550 -41380,154370l327259 566839 -3290 230 -578859 52460c-68220,6180 -98590,55260 -67490,109090l20 40c31080,53830 112290,92810 180490,86640l578879 -52440 3230 -340 437049 756979c-309510,198730 -561539,462189 -608379,705179 264390,29760 528829,59490 793209,89250 89300,144860 178570,289770 267830,434679 -314359,-43340 -628709,-86660 -943028,-129960 -160690,953878 288300,674809 1372708,827409 306480,497469 441299,843169 398919,1074748l-112710 -65080 -259190 -149630c-7110,-21590 -17750,-44020 -32060,-67030 -40460,-65020 -262110,-454669 -302250,-471199 -34390,-26490 -482649,-23630 -559179,-26150 -186630,-6190 -263140,126350 -164480,284860 40460,65000 262160,454699 302250,471209 34350,26460 482699,23620 559189,26140 27080,900 51840,-1110 74070,-5740l259190 149650 114150 65910c-181670,157710 -556579,207450 -1131618,191030 -674399,-862909 -657149,-1391188 -1402938,-775139 194700,250600 389379,501149 584079,751729 -170140,-4870 -340249,-9700 -510379,-14570 -157940,-214120 -315879,-428249 -473859,-642359 -187030,162050 -289170,512039 -306510,879479l-874099 -20 -1350 -2990 -244020 -527539c-28750,-62170 -103120,-113010 -165300,-113030l-20 20c-62160,-20 -89500,50860 -60730,112990l244020 527559 1410 3010 -654519 -20c-62160,-20 -113020,50830 -113020,113010l20 20c-20,62160 50840,113040 113000,113040l654519 0 -1430 2950 -244000 527529c-28770,62180 -1450,113020 60730,113000l20 20c62180,-20 136530,-50820 165300,-113020l244020 -527529 1280 -2970 874169 0c17340,367399 119510,717379 306490,879459 157980,-214130 315939,-428249 473879,-642359 170130,-4870 340239,-9740 510359,-14590 -194660,250580 -389399,501149 -584059,751679 745789,616119 728539,87820 1402938,-775069 575079,-16430 950058,33280 1131658,191070l-114190 65940 -259190 149640c-22230,-4630 -46990,-6640 -74070,-5740 -76540,2520 -524799,-340 -559189,26140 -40140,16540 -261790,406189 -302250,471209 -98660,158510 -22150,291050 164480,284860 76510,-2520 524839,320 559179,-26150 40100,-16510 261820,-406199 302250,-471199 14310,-23010 24950,-45430 32060,-67030l259190 -149630 112730 -65080c42300,231610 -92490,577259 -398919,1074668 -1084448,152600 -1533398,-126470 -1372728,827429 314319,-43340 628689,-86660 943008,-129980 -89270,144910 -178530,289820 -267790,434679 -264420,29780 -528839,59490 -793229,89240 46840,243000 298890,506489 608399,705209l-437029 756999 -3270 -340 -578879 -52420c-68200,-6230 -149410,32770 -180510,86600l0 40c-31100,53830 -710,102910 67490,109110l578859 52440 3310 250 -327249 566839c-31080,53850 -12480,123270 41390,154370l-20 40c53870,31060 123310,12470 154390,-41380l327239 -566829 1880 2710 334839 475099c39470,56000 97170,57750 128270,3900l0 -20c31100,-53850 24220,-143670 -15230,-199650l-334869 -475069 -1880 -2650 437049 -756999c326839,168660 680989,255160 914859,174250 -106480,-243890 -212920,-487709 -319379,-731579 80850,-149760 161700,-299510 242550,-449289 119660,293930 239340,587789 358979,881679 906429,-337809 440289,-587059 30200,-1602517 273300,-506239 503859,-806159 731279,-884529l0 131900 0 299280c-15120,16960 -29240,37380 -42010,61280 -36080,67540 -262690,454329 -256940,497349 -5750,43020 220860,429809 256940,497349 87960,164710 240980,164710 328949,0 36050,-67520 262680,-454369 256940,-497349 5740,-42980 -220890,-429829 -256940,-497349 -12780,-23900 -26900,-44320 -42020,-61280l0 -299280 0 -130210c221720,79160 453689,368719 731259,882839 -410069,1015458 -876229,1264708 30210,1602517 119660,-293870 239320,-587789 358979,-881659 80820,149730 161710,299490 242520,449269 -106440,243870 -212900,487709 -319359,731559 233880,80910 588029,-5620 914899,-174320l437089 757109 -1900 2610 -334839 475089c-39490,55980 -46330,145780 -15250,199650l40 20c31080,53850 88750,52080 128230,-3900l334859 -475079 1840 -2710 327229 566789c31100,53850 100590,72480 154420,41380l20 -20c53830,-31060 72450,-100550 41370,-154390l-327279 -566819 3310 -250 578859 -52440c68230,-6200 98620,-55280 67520,-109110l0 -20c-31100,-53870 -112310,-92830 -180530,-86640l-578859 52440 -3270 320 -437069 -757049c309530,-198710 561529,-462189 608379,-705139 -264440,-29750 -528839,-59460 -793279,-89200 -89240,-144880 -178500,-289810 -267770,-434699 314319,43320 628649,86660 943008,129960 160650,-953898 -288300,-674829 -1372748,-827429 -301730,-489769 -446109,-839329 -400349,-1075528l114210 65940 259180 149630c7120,21600 17750,44020 32060,67030 40440,65000 262160,454689 302250,471199 34350,26470 482679,23630 559189,26150 186620,6190 263130,-126350 164470,-284860 -40460,-65020 -262110,-454669 -302250,-471209 -34390,-26480 -482649,-23620 -559179,-26140 -27090,-900 -51840,1110 -74080,5740l-259180 -149640 -112810 -65130c179360,-152510 546179,-208580 1130248,-191880 674389,862889 657169,1391188 1402938,775119 -194700,-250580 -389399,-501179 -584069,-751729 170130,4870 340239,9720 510349,14590 157980,214090 315919,428249 473899,642339 186990,-162060 289150,-512019 306480,-879439l874159 -20 1320 2990 244000 527529c28770,62180 103130,113020 165280,113020l50 0c62160,0 89500,-50840 60750,-113020l-244040 -527529 -1440 -2950 654519 -20c62180,20 113020,-50840 113020,-113040l0 0c20,-62180 -50840,-113030 -113020,-113010l-654519 0 1440 -3020 244010 -527509c28760,-62170 1460,-113010 -60720,-112990l-20 -20c-62180,0 -136560,50810 -165290,113010l-244020 527559 -1340 2950 -874119 20c-17350,-367399 -119510,-717379 -306520,-879459 -157940,214090 -315899,428239 -473879,642359 -170110,4870 -340239,9700 -510349,14590 194720,-250600 389369,-501129 584069,-751729 -745769,-616069 -728509,-87810 -1402908,775099 -575019,16440 -949948,-33300 -1131638,-191010l114170 -65910 259180 -149650c22240,4630 46990,6640 74080,5740 76490,-2520 524839,320 559179,-26140 40100,-16510 261790,-406209 302250,-471209 98660,-158510 22150,-291050 -164470,-284860 -76540,2520 -524799,-340 -559189,26150 -40140,16530 -261790,406179 -302250,471199 -14310,23010 -24940,45440 -32060,67030l-259180 149630 -112760 65110c-42400,-231570 92450,-577279 398939,-1074778 1084428,-152620 1533398,126490 1372708,-827409 -314309,43320 -628669,86640 -943048,129960 89310,-144910 178550,-289820 267840,-434729 264390,-29710 528809,-59460 793229,-89170 -46870,-243000 -298830,-506429 -608339,-705169l437089 -757019 3230 320 578839 52460c68240,6170 149450,-32790 180530,-86640l20 -20c31080,-53830 710,-102930 -67540,-109110l-578839 -52440 -3290 -270 327259 -566819c31080,-53850 12500,-123270 -41350,-154390l-20 20c-53870,-31100 -123290,-12510 -154390,41360l-327259 566829 -1880 -2750 -334839 -475079c-39480,-55980 -97170,-57750 -128230,-3900l-20 20c-31100,53850 -24260,143640 15230,199630l334819 475109 1940 2650 -437069 757029c-326849,-168710 -681039,-255220 -914919,-174300 106440,243840 212880,487669 319359,731539 -80850,149780 -161700,299530 -242570,449269 -119660,-293880 -239290,-587769 -358949,-881639 -906439,337789 -440279,587039 -30210,1602517 -273280,506189 -503839,806029 -731259,884499l0 -131810 0 -299280c15120,-16960 29240,-37380 42020,-61280 36050,-67520 262680,-454369 256940,-497349 5740,-42980 -220890,-429829 -256940,-497349 -87970,-164710 -240990,-164710 -328949,0 -36080,67540 -262690,454329 -256940,497349 -5750,43020 220860,429809 256940,497349 12770,23900 26890,44320 42010,61280l0 299280 0 130150c-221740,-79080 -453709,-368679 -731299,-882819 410109,-1015498 876249,-1264748 -30210,-1602557 -119630,293870 -239290,587779 -358949,881679 -80850,-149780 -161720,-299530 -242550,-449269 106460,-243870 212920,-487719 319379,-731579 -233870,-80920 -588019,5610 -914899,174270l-437029 -756979 1900 -2650 334869 -475089c39470,-56010 46310,-145800 15230,-199650l-20 -20c-31100,-53850 -88760,-52080 -128250,3900l-334819 475099 -1880 2730 -327259 -566829c-31100,-53850 -100560,-72460 -154410,-41360zm3715634 5184592l-358059 206730 358009 206700c133310,-218560 133290,-194910 50,-413429zm-725439 418829l-358059 206730c122570,224580 102190,212810 358059,206680l0 -413409zm-480509 -5380l358059 -206720 -358079 -206730c-133270,218520 -133270,194890 20,413449zm725429 -418829l358059 -206720c-122610,-224650 -102190,-212900 -358059,-206770l0 413489zm-2131807 1148318c81620,18860 302610,-2330 397239,-5470 -50030,80380 -178870,261150 -203350,341299 -81620,-18870 -302610,2320 -397229,5440 50020,-80350 178870,-261130 203340,-341269zm3824804 -2208246c-24470,80120 -153320,260910 -203340,341289 94620,-3140 315589,-24350 397229,-5470 24480,-80120 153320,-260910 203350,-341269 -94630,3120 -315599,24330 -397239,5450zm-1692997 1484138l358059 206730c-122540,224580 -102210,212810 -358059,206680l0 -413409zm-244920 -424209l-358079 -206750c122590,-224640 102190,-212870 358079,-206740l0 413489zm2131807 1148318c-81620,18860 -302610,-2330 -397229,-5470 50020,80380 178870,261150 203340,341299 81620,-18870 302610,2320 397239,5440 -50030,-80350 -178870,-261130 -203350,-341269zm-3824804 -2208246c24480,80120 153320,260910 203350,341289 -94630,-3140 -315599,-24350 -397239,-5470 -24470,-80120 -153320,-260910 -203340,-341269 94620,3120 315589,24330 397229,5450zm1621577 -936219c57130,61260 149280,263240 193880,346739 44600,-83500 136730,-285480 193890,-346739 -57140,-61260 -149290,-263240 -193890,-346739 -44600,83500 -136720,285480 -193880,346739zm0 4416503c57130,-61260 149280,-263240 193880,-346739 44600,83500 136730,285480 193890,346739 -57140,61260 -149290,263240 -193890,346739 -44600,-83500 -136720,-285480 -193880,-346739z"/>
 </g>
</svg>
