<?xml version="1.0" encoding="UTF-8"?>
<!DOCTYPE svg PUBLIC "-//W3C//DTD SVG 1.1//EN" "http://www.w3.org/Graphics/SVG/1.1/DTD/svg11.dtd">
<!-- Creator: CorelDRAW X5 -->
<svg xmlns="http://www.w3.org/2000/svg" xml:space="preserve" width="108.478mm" height="124.484mm" style="shape-rendering:geometricPrecision; text-rendering:geometricPrecision; image-rendering:optimizeQuality; fill-rule:evenodd; clip-rule:evenodd"
viewBox="0 0 10847840 12448420"
 xmlns:xlink="http://www.w3.org/1999/xlink">
 <defs>
  <style type="text/css">
   <![CDATA[
    .str0 {stroke:black;stroke-width:35280}
    .fil0 {fill:none}
   ]]>
  </style>
 </defs>
 <g id="Layer_x0020_1">
  <metadata id="CorelCorpID_0Corel-Layer"/>
  <path class="fil0 str0" d="M5580690 9965460l252290 0c84920,144690 237180,241160 410930,241160 266410,0 482360,-226740 482360,-506440 0,-279710 -215950,-506460 -482360,-506460 -192420,0 -358470,118310 -435890,289400l-227330 0 0 -445310 487390 -398790 -487390 -917450 0 -11730c431740,-45030 808700,-274000 1051360,-607100l10250 5910 550820 880830 589060 -222710 385660 222670 -113650 196850c-186900,-18490 -372380,66180 -468580,232810 -133210,230700 -44820,531090 197420,670950 242240,139860 546560,66210 679770,-164500 86870,-150460 79440,-330560 -3390,-476470l126150 -218490c140680,81230 261520,155200 365860,223010 -20870,26640 -33340,60110 -33340,96360l0 566770c10,86200 70530,156750 156770,156750l0 -10c86220,10 156760,-70520 156760,-156740l0 -466500c674720,521000 133960,573200 675060,885610 1042890,-23450 1127720,-170360 626570,-1085260 -541110,-312420 -315900,182000 -1104500,-141820l404000 -233250c74690,-43120 100500,-139470 57380,-214140l20 -10c-43120,-74670 -139470,-100480 -214160,-57380l-490820 283380c-31410,18120 -54170,45660 -66800,77070 -110890,-56460 -235360,-124120 -376040,-205350l126140 -218490c167770,-1200 327440,-84830 414310,-235290 133210,-230720 44820,-531110 -197400,-670940 -242240,-139860 -546580,-66220 -679770,164480 -96230,166640 -76780,369620 32660,522200l-113660 196880 -385640 -222660 -101680 -621510 -1038240 -36620 -9960 -5760c82670,-185490 128630,-390970 128630,-607160 0,-216200 -45990,-421640 -128630,-607150l9980 -5770 1038220 -36630 101680 -621490 385660 -222660 113650 196870c-109450,152590 -128880,355570 -32670,522190 133190,230720 437530,304360 679770,164510 242240,-139840 330630,-440230 197420,-670950 -86870,-150460 -246560,-234090 -414330,-235290l-126130 -218490c140690,-81230 265160,-148900 376050,-205340 12610,31380 35370,58920 66780,77040l490820 283380c74690,43110 171040,17310 214160,-57370l-20 -20c43120,-74660 17310,-171010 -57380,-214130l-403970 -233260c788540,-323800 563400,170610 1104470,-141810 501150,-914900 416320,-1061810 -626570,-1085260 -541110,312420 -320,364610 -675060,885620l0 -466510c0,-86220 -70540,-156760 -156760,-156740l0 -20c-86240,0 -156760,70550 -156770,156760l0 566760c0,36260 12470,69750 33340,96390 -104340,67800 -225180,141760 -365860,223000l-126150 -218490c82850,-145900 90260,-326000 3390,-476460 -133210,-230720 -437530,-304360 -679770,-164510 -242220,139840 -330610,440230 -197410,670950 96190,166640 281690,251310 468570,232800l113650 196860 -385640 222670 -589080 -222720 -550830 880860 -10220 5890c-242640,-333130 -619640,-562070 -1051380,-607110l0 -11740 487390 -917450 -487390 -398780 0 -445310 227330 0c77420,171080 243470,289390 435890,289390 266410,0 482360,-226740 482360,-506460 0,-279690 -215950,-506440 -482360,-506440 -173750,0 -326010,96470 -410930,241160l-252290 0c0,-162450 3630,-304070 10200,-428330 33480,4740 68720,-1190 100120,-19320l490810 -283370c74670,-43120 100500,-139470 57390,-214150l-10 0c-43100,-74680 -139470,-100490 -214140,-57390l-403990 233260c113840,-844820 429430,-402630 429430,-1027430 -541760,-891440 -711400,-891440 -1253160,0 0,624830 315600,182590 429450,1027430l-404010 -233260c-74660,-43100 -171030,-17290 -214130,57390l-20 0c-43100,74680 -17270,171030 57390,214150l490810 283370c31410,18130 66640,24080 100150,19320 6540,124260 10190,265880 10190,428330l-252290 0c-84920,-144690 -237180,-241160 -410940,-241160 -266390,0 -482350,226750 -482350,506440 0,279720 215960,506460 482350,506460 192410,0 358490,-118310 435900,-289390l227330 0 0 445310 -487400 398780 487400 917470 0 11720c-431760,45020 -808750,273990 -1051410,607110l-10200 -5890 -550830 -880860 -589090 222720 -385640 -222670 113660 -196860c186870,18510 372370,-66160 468560,-232800 133210,-230720 44810,-531110 -197410,-670950 -242230,-139850 -546560,-66210 -679760,164510 -86880,150460 -79470,330560 3380,476460l-126140 218490c-140690,-81240 -261530,-155200 -365870,-223000 20870,-26640 33350,-60130 33350,-96390l0 -566760c-20,-86210 -70540,-156760 -156780,-156760l0 20c-86220,-20 -156760,70520 -156760,156740l0 466510c-674730,-521010 -133940,-573200 -675050,-885620 -1042900,23450 -1127730,170360 -626580,1085260 541080,312420 315940,-181990 1104470,141810l-403970 233260c-74660,43120 -100490,139470 -57370,214130l-20 20c43120,74680 139470,100480 214150,57370l490830 -283380c31400,-18120 54160,-45660 66780,-77040 110880,56440 235350,124110 376040,205340l-126130 218490c-167770,1200 -327450,84830 -414330,235290 -133200,230720 -44810,531110 197430,670950 242240,139850 546580,66210 679760,-164510 96210,-166620 76790,-369600 -32670,-522190l113660 -196870 385650 222660 101680 621490 1038220 36630 9970 5750c-82660,185500 -128630,390970 -128630,607170 0,216210 45990,421650 128630,607160l-9950 5760 -1038240 36620 -101680 621510 -385640 222660 -113650 -196880c109440,-152580 128880,-355560 32650,-522200 -133180,-230700 -437520,-304340 -679760,-164480 -242220,139830 -330620,440220 -197410,670940 86870,150460 246540,234090 414310,235290l126150 218490c-140690,81230 -265160,148890 -376050,205350 -12630,-31410 -35390,-58950 -66790,-77070l-490830 -283380c-74680,-43100 -171030,-17290 -214150,57380l20 10c-43120,74670 -17290,171020 57370,214140l404010 233250c-788610,323820 -563400,-170600 -1104510,141820 -501150,914900 -416320,1061810 626580,1085260 541090,-312410 330,-364610 675050,-885610l0 466500c0,86220 70540,156750 156760,156740l0 10c86240,0 156760,-70550 156780,-156750l0 -566770c0,-36250 -12480,-69720 -33350,-96360 104340,-67810 225180,-141780 365870,-223010l126140 218490c-82830,145910 -90260,326010 -3380,476470 133200,230710 437530,304360 679760,164500 242240,-139860 330630,-440250 197430,-670950 -96210,-166630 -281690,-251300 -468580,-232810l-113660 -196850 385660 -222670 589070 222710 550810 -880830 10230 -5910c242630,333140 619660,562070 1051400,607100l0 11710 -487400 917470 487400 398790 0 445310 -227330 0c-77410,-171090 -243490,-289400 -435900,-289400 -266390,0 -482350,226750 -482350,506460 0,279700 215960,506440 482350,506440 173760,0 326020,-96470 410940,-241160l252290 0c0,162460 -3650,304100 -10190,428340 -33510,-4770 -68740,1180 -100150,19320l-490810 283380c-74660,43100 -100490,139450 -57390,214130l20 0c43100,74690 139470,100500 214130,57400l404010 -233260c-113850,844830 -429450,402590 -429450,1027420 541760,891450 711400,891450 1253160,0 0,-624790 -315590,-182600 -429430,-1027420l403990 233260c74670,43100 171040,17290 214140,-57400l10 0c43110,-74680 17280,-171030 -57390,-214130l-490810 -283380c-31400,-18140 -66640,-24070 -100120,-19320 -6570,-124240 -10200,-265880 -10200,-428340zm0 -2595370l0 -874360 757150 437140c-181320,233460 -450060,395580 -757150,437220zm914100 -708620l-757360 -437240 757380 -437270c55130,134920 85600,282500 85600,437250 0,154740 -30470,302360 -85620,437260zm-156930 -1145910l-757170 437140 0 -874370c307080,41640 575880,203720 757170,437230zm-1070690 -437230l0 874370 -757180 -437140c181320,-233470 450070,-395610 757180,-437230zm-914130 708610l757370 437290 -757370 437260c-55160,-134920 -85630,-282540 -85630,-437280 0,-154750 30470,-302370 85630,-437270zm156950 1145930l757180 -437140 0 874360c-307070,-41620 -575880,-203730 -757180,-437220zm-2673890 408970c52450,90860 167430,122650 256830,71030 89400,-51610 119360,-167080 66900,-257940 -52450,-90830 -167430,-122620 -256830,-71010 -89390,51620 -119350,167080 -66900,257920zm826010 1430710c52450,90840 167430,122630 256830,71010 89400,-51610 119360,-167080 66900,-257920 -52450,-90850 -167430,-122640 -256830,-71020 -89390,51610 -119350,167080 -66900,257930zm-1895550 460830c321710,-185730 44360,-666110 -277340,-480360 -292810,169030 -15440,649400 277340,480360zm2788160 -1642600l-333750 -94710 84880 -336380 567030 -39990 -318160 471080zm4631010 -3914890c52460,90840 22500,206310 -66900,257920 -89400,51620 -204380,19830 -256830,-71030 -52430,-90850 -22480,-206300 66900,-257920 89420,-51610 204400,-19820 256830,71030zm826010 1430690c52460,90860 22500,206310 -66900,257940 -89400,51600 -204380,19810 -256830,-71030 -52430,-90850 -22480,-206320 66900,-257930 89420,-51620 204380,-19830 256830,71020zm1346890 -1411180c-321700,185740 -599050,-294640 -277350,-480370 292800,-169050 570130,311330 277350,480370zm-2816640 1593320l84880 -336380 -333750 -94710 -318160 471090 567030 -40000zm1469750 2053120c-52450,90860 -167430,122650 -256830,71030 -89390,-51610 -119350,-167080 -66900,-257940 52450,-90830 167430,-122620 256830,-71010 89400,51620 119360,167080 66900,257920zm-826010 1430710c-52450,90840 -167430,122630 -256830,71010 -89390,-51610 -119350,-167080 -66900,-257920 52450,-90850 167430,-122640 256830,-71020 89400,51610 119360,167080 66900,257930zm1895550 460830c-321700,-185730 -44350,-666110 277350,-480360 292800,169030 15440,649400 -277350,480360zm-2788160 -1642600l333750 -94710 -84880 -336380 -567030 -39990 318160 471080zm-4631010 -3914890c-52450,90840 -22490,206310 66900,257920 89400,51620 204380,19830 256830,-71030 52440,-90850 22480,-206300 -66900,-257920 -89410,-51610 -204390,-19820 -256830,71030zm-826010 1430690c-52450,90860 -22490,206310 66900,257940 89400,51600 204380,19810 256830,-71030 52440,-90850 22480,-206320 -66900,-257930 -89410,-51620 -204380,-19830 -256830,71020zm-1346880 -1411180c321700,185740 599050,-294640 277340,-480370 -292800,-169050 -570130,311330 -277340,480370zm2816630 1593320l-84880 -336380 333750 -94710 318160 471090 -567030 -40000zm1292070 -2730480c104910,0 189930,83680 189930,186910 0,103230 -85020,186910 -189930,186910 -104900,0 -189930,-83680 -189930,-186910 0,-103230 85030,-186910 189930,-186910zm1652000 0c104930,0 189930,83680 189930,186910 0,103230 -85000,186910 -189930,186910 -104880,0 -189910,-83680 -189910,-186910 0,-103230 85030,-186910 189910,-186910zm-548640 -1872020c0,371480 -554710,371480 -554710,0 0,-338090 554710,-338070 554710,0zm-28480 3235930l-248870 -241690 -248890 241690 248890 511080 248870 -511080zm-1074880 5968030c104910,0 189930,-83680 189930,-186910 0,-103230 -85020,-186910 -189930,-186910 -104900,0 -189930,83680 -189930,186910 0,103230 85030,186910 189930,186910zm1652000 0c104930,0 189930,-83680 189930,-186910 0,-103230 -85000,-186910 -189930,-186910 -104880,0 -189910,83680 -189910,186910 0,103230 85030,186910 189910,186910zm-548640 1872010c0,-371470 -554710,-371470 -554710,0 0,338090 554710,338080 554710,0zm-28480 -3235920l-248870 241690 -248890 -241690 248890 -511070 248870 511070z"/>
 </g>
</svg>
