<?xml version="1.0" encoding="UTF-8"?>
<!DOCTYPE svg PUBLIC "-//W3C//DTD SVG 1.1//EN" "http://www.w3.org/Graphics/SVG/1.1/DTD/svg11.dtd">
<!-- Creator: CorelDRAW X5 -->
<svg xmlns="http://www.w3.org/2000/svg" xml:space="preserve" width="108.447mm" height="95.4635mm" style="shape-rendering:geometricPrecision; text-rendering:geometricPrecision; image-rendering:optimizeQuality; fill-rule:evenodd; clip-rule:evenodd"
viewBox="0 0 10844680 9546341"
 xmlns:xlink="http://www.w3.org/1999/xlink">
 <defs>
  <style type="text/css">
   <![CDATA[
    .str0 {stroke:black;stroke-width:35280}
    .fil0 {fill:none}
   ]]>
  </style>
 </defs>
 <g id="Layer_x0020_1">
  <metadata id="CorelCorpID_0Corel-Layer"/>
  <path class="fil0 str0" d="M5263025 5754675c106370,17260 213980,16800 318520,-240l572509 991619c-72770,73690 -152560,119300 -241110,129540 -102830,11900 -220010,-26030 -355040,-126370 59790,-58160 98800,-153760 98800,-261840 0,-177280 -104920,-320960 -234370,-320960 -129440,0 -234370,143680 -234370,320960 0,108080 39020,203680 98800,261840 -135010,100370 -252170,138270 -355010,126370 -88580,-10260 -168350,-55880 -241080,-129540l572349 -991379zm-1619779 -110920c20460,-80850 83770,-162410 177360,-216460 153500,-88630 330410,-69610 395130,42500 64720,112100 -7260,274820 -160760,363450 -93590,54040 -195890,68050 -276150,45350 -19400,167110 6350,287520 68050,370620 53160,71590 132550,117890 232770,144050l572349 -991359c-68160,-83520 -121510,-176900 -159050,-276000l-1145019 40c-27430,99850 -27080,191750 8340,273560 41110,95010 132560,177500 286980,244250zm2985707 -1567229c-64720,-112100 7260,-274820 160760,-363450 93610,-54040 195920,-68060 276180,-45350 19390,-167120 -6360,-287550 -68040,-370670 -53170,-71570 -132570,-117850 -232770,-144040l-572399 991419c68130,83520 121550,176900 159060,275980l1145039 -40c27430,-99880 27040,-191770 -8360,-273600 -41130,-94970 -132540,-177480 -286980,-244240 -20460,80870 -83750,162450 -177360,216490 -153500,88630 -330410,69600 -395130,-42500zm-2985707 -174010c20460,80870 83730,162470 177340,216510 153540,88630 330430,69610 395150,-42490 64720,-112110 -7240,-274810 -160780,-363460 -93590,-54040 -195870,-68040 -276150,-45330 -19380,-167140 6350,-287570 68070,-370690 53140,-71570 132530,-117830 232730,-144000l572439 991449c-33180,40740 -63550,84630 -90650,131580 -27130,46940 -49940,95210 -68650,144290l-1144839 20c-27410,-99880 -27040,-191790 8360,-273620 41150,-94990 132560,-177510 286980,-244260zm2985707 1567279c-64720,112100 7240,274820 160760,363450 93610,54040 195920,68060 276180,45350 19390,167110 -6340,287540 -68040,370650 -53170,71560 -132570,117860 -232790,144020l-572429 -991429c33190,-40740 63560,-84640 90660,-131600 27130,-46940 49940,-95190 68650,-144290l1144839 20c27410,99850 27080,191730 -8360,273530 -41110,95010 -132540,177530 -286980,244270 -20480,-80850 -83770,-162420 -177360,-216470 -153520,-88630 -330410,-69590 -395130,42500zm-1206619 -2089908c129450,0 234370,-143690 234370,-320950 0,-108080 -39020,-203680 -98800,-261840 135030,-100340 252210,-138300 355040,-126420 88570,10280 168340,55900 241120,129580l-572389 991409c-106430,-17260 -213950,-16800 -318530,220l-572509 -991609c72790,-73720 152560,-119320 241140,-129580 102800,-11900 220000,26030 355010,126370 -59800,58160 -98820,153770 -98820,261870 0,177260 104930,320950 234370,320950zm1851168 324500c262230,83770 428970,192190 519100,320270 777859,-1190169 882669,-1008599 -536880,-929979 65840,142120 76370,340720 17780,609709zm20 2137548c262210,-83770 428930,-192190 519080,-320290 777879,1190189 882699,1008639 -536930,929999 65890,-142100 76420,-340720 17850,-609709zm-3702347 -2137558c-262210,83770 -428970,192190 -519100,320280 -777869,-1190169 -882679,-1008589 536940,-929959 -65870,142100 -76380,340700 -17840,609679zm20 2137558c-262230,-83790 -428960,-192190 -519090,-320290 -777909,1190209 -882719,1008609 536940,929989 -65900,-142100 -76450,-340710 -17850,-609699zm1851158 -3206337c-203670,-185190 -380930,-275370 -536930,-289390 641809,-1268729 432130,-1268729 1073839,-30 -156000,14050 -333260,104220 -536910,289420zm536910 4564506c-641789,1268769 -432170,1268759 -1073869,-20 156020,-13990 333280,-104150 536960,-289390 203660,185220 380920,275380 536910,289410zm4653746 -2074178l-398840 0 196210 320860c79600,130220 -41170,319850 -118340,193560l-314570 -514400 -752869 0 404370 661309c119880,196040 -62000,481450 -178150,291400l-582579 -952729 -867049 0c969069,1584809 873119,1751048 -983919,1704198l433510 750879 1116389 28160c222710,5660 66340,305830 -163270,300010l-774909 -19560 376400 651999 602799 15230c148000,3730 44070,203100 -108440,199270l-375980 -9490 199410 345410c142720,247110 -468380,599949 -611029,352770l-199400 -345410 -179770 330370c-73010,134020 -297540,124250 -226810,-5750l288220 -529620 -376450 -651989 -370510 680859c-109860,201760 -447950,187110 -341430,-8620l533770 -980869 -433530 -750879c-887919,1631678 -1079879,1631698 -1967808,10l-433520 750869 533770 980869c106500,195720 -231640,210380 -341430,8620l-370530 -680859 -376420 651989 288210 529650c70700,129990 -153770,139740 -226830,5710l-179740 -330360 -199410 345410c-142710,247140 -753699,-105640 -611029,-352780l199410 -345400 -375980 9500c-152620,3800 -256370,-195600 -108450,-199280l602789 -15210 376440 -651999 -774889 19560c-229720,5730 -386020,-294370 -163290,-300030l1116349 -28160 433520 -750859c-1857048,46850 -1952998,-119390 -983909,-1704238l-867029 40 -582549 952709c-116330,190060 -298010,-95360 -178190,-291400l404360 -661309 -752849 0 -314590 514420c-77170,126250 -197960,-63360 -118340,-193550l196220 -320870 -398860 -20c-285370,40 -285370,-705629 0,-705509l398850 -20 -196210 -320860c-79590,-130170 41100,-319830 118360,-193560l314550 514420 752869 0 -404370 -661319c-119850,-195960 61970,-481490 178170,-291390l582559 952709 867049 20c-969069,-1584829 -873119,-1751068 983919,-1704218l-433510 -750879 -1116359 -28160c-222760,-5600 -66350,-305810 163240,-299990l774909 19540 -376400 -651999 -602799 -15220c-147970,-3720 -44100,-203100 108440,-199270l375980 9480 -199410 -345390c-142710,-247130 468360,-599929 610999,-352790l199430 345430 179770 -330380c73010,-133980 297560,-124260 226800,5740l-288220 529620 376460 651999 370510 -680869c109840,-201740 447910,-187130 341450,8640l-533790 980849 433500 750869c887949,-1631668 1079909,-1631668 1967838,20l433520 -750869 -533790 -980869c-106500,-195820 231640,-210340 341480,-8620l370500 680859 376430 -652009 -288220 -529640c-70750,-129840 153690,-139880 226830,-5720l179750 330360 199430 -345390c142620,-247140 753689,105600 611019,352780l-199430 345400 375980 -9520c152690,-3760 256340,195620 108450,199290l-602779 15240 -376430 651979 774909 -19560c229560,-5770 386050,294340 163250,300030l-1116349 28190 -433520 750829c1857048,-46850 1952998,119390 983889,1704178l867049 0 582569 -952689c116280,-190100 297990,95380 178170,291390l-404360 661299 752849 20 314550 -514450c77260,-126220 197970,63400 118380,193570l-196230 320860 398850 20c285360,-80 285410,705619 10,705529zm-5450925 98060c248950,143740 567329,58430 711079,-190550 143730,-248950 58430,-567349 -190560,-711099 -248950,-143720 -567329,-58430 -711079,190550 -143730,248950 -58430,567349 190560,711099z"/>
 </g>
</svg>
